<svg id="Layer_1" data-name="Layer 1" xmlns="http://www.w3.org/2000/svg" viewBox="0 0 510.04 510.04"><defs><style>.cls-1{fill:#5e617a;}.cls-1,.cls-2,.cls-3,.cls-4,.cls-5,.cls-6,.cls-8{stroke:#fff;stroke-miterlimit:10;}.cls-2{fill:#d66853;}.cls-3{fill:#662d91;}.cls-4{fill:#2f0601;}.cls-5{fill:#212d40;}.cls-6{fill:#11151c;}.cls-7,.cls-8{fill:none;}.cls-8{stroke-width:10px;}</style></defs><title>DL</title><path class="cls-1" d="M321.39,148.3a59.55,59.55,0,0,1,9.88-1.84c2.29-17.74,5.48-35.5-2.07-51.2-6.58-13.69-24-18.85-39.15-19.09C309.31,94.58,316.63,121.65,321.39,148.3Z" transform="translate(5.02 5.54)"/><path class="cls-2" d="M258.52,74.44c-9.38,7.16-14.46,18.42-20.35,28.65-18.55,32.23-46.79,50.51-80.72,67.72,13.47-3.86,18.39-5.87,18.39-5.87,23.22-16.47,46.51-15.62,64.89-10.25,19.18,5.59,23.89,14.34,35.56,14.32,13.67,0,13.76-11.22,36.08-18,3.06-.94,6-1.87,9-2.66-4.76-26.65-12.08-53.72-31.34-72.13C283.46,66.39,267.9,67.27,258.52,74.44Z" transform="translate(5.02 5.54)"/><path class="cls-3" d="M278.58,38.33c1.64.44,3.17.82,4.53,1.09A31.47,31.47,0,0,0,278.58,38.33Z" transform="translate(5.02 5.54)"/><path class="cls-4" d="M358.89,155.12C355.35,148,343,146.27,335,146.27c-1.28,0-2.53.08-3.77.19a58.59,58.59,0,0,0-9.87,1.83c-3,.79-6,1.73-9,2.66C290.05,157.79,290,169,276.29,169c-11.67,0-16.39-8.74-35.56-14.33-18.38-5.36-41.67-6.22-64.89,10.25,0,0-4.92,2-18.39,5.88-4.64,6.13-9.24,12.42-13.84,18.76,7.18-2.63,18.47-7.1,27-10.62,5.8-2.39,10,7.6,12.68,13.26s4.41,11.79,7.41,17.29a40.52,40.52,0,0,0,74.12-6.95c1.33-4.14,2.71-8.53,4.19-12.31,1.58-4,3.38-8.84,7.63-7.91,6.42,1.41,10.73,11.7,12.73,18,4.48,14.08,19.93,23.75,34.54,21.62a31.19,31.19,0,0,0,5.95-1.46,31.77,31.77,0,0,0,13.94-9.92,47.28,47.28,0,0,0,5.75-8.79c5.51-10.73,3.81-24.4,8.74-36.24C359.69,162.21,360.49,158.32,358.89,155.12ZM255.33,209.8c-10.27,12.91-29.67,19.56-44.67,12.7s-24.19-26.56-21.15-42.78c4.2-22.4,25.55-23.27,44.76-19.61,11,2.09,23.77,8.46,28.21,18.72C266.85,188.91,262.18,201.19,255.33,209.8Zm95.39-29.61c-.61,6.63-1.31,13.41-4.14,19.44a27.73,27.73,0,0,1-4.48,6.7,30.86,30.86,0,0,1-14.07,9,28.37,28.37,0,0,1-10.44,1.19,30.24,30.24,0,0,1-26-21.18c-6.5-22.43,11.78-36.13,31.22-38.6a49.67,49.67,0,0,1,7-.41h.35c7.26.13,15.28,1.33,18.85,7.62C351.58,168.45,351.2,175,350.72,180.19Z" transform="translate(5.02 5.54)"/><path class="cls-1" d="M329.88,220.47c2.37,7.53,3.87,16.95,2.27,29.86-3.26,26.5-16.22,46.89-29.52,70-4.93,8.59-5,22.37-12.6,28.74-9.27,7.79-23.33,10.61-36.74,10.3-.22,1.14-.41,2.29-.58,3.44,10.87,15.37,16,34.46,15.09,53.25h0A83.93,83.93,0,0,1,256.48,455c9.07,19.82,30.69,33.18,52.47,32.42s42.41-15.62,50.06-36c5.26-14,4.63-29.52,3.92-44.51L359,323.57c-.68-14.44-1.43-29.2-6.82-42.61-3.89-9.65-10.19-18.74-10.55-29.14-.33-9.74,4.69-19,4.66-28.77a36.56,36.56,0,0,0-2.49-12.5A31.93,31.93,0,0,1,329.88,220.47Z" transform="translate(5.02 5.54)"/><path class="cls-1" d="M70,357.48c10.41-21,6.25-46.22,11.68-69.05,2.5-10.53,7-20.31,12.46-29.63v0c2.28-3.88,4.72-7.67,7.27-11.41h0c4.33-6.33,9-12.48,13.54-18.56,9.61-12.73,19.11-26.1,28.65-39.25h0c4.6-6.34,9.2-12.63,13.84-18.77,33.93-17.21,62.17-35.49,80.72-67.72,5.89-10.23,11-21.49,20.35-28.65s24.94-8,31.53,1.73c8.38-5.32,11.51-20.41,5.47-28.28a25.19,25.19,0,0,0-12.41-8.47c-1.36-.27-2.89-.65-4.53-1.09A36.1,36.1,0,0,0,261,39.8c-11.93,4.13-21.38,13.31-29.56,22.92C199.6,100.16,180.89,147.81,146.53,183c-15.46,15.81-33.76,28.72-48.6,45.12-24.85,27.48-40.55,65-73.37,82.23C16.38,314.6,8.32,319.52,0,323.68v76.65c11.53-2.5,22.92-5.54,33.66-10.37C48.76,383.15,62.66,372.34,70,357.48Z" transform="translate(5.02 5.54)"/><path class="cls-5" d="M0-.54V294.84c16-31.81,26.44-68.55,35.42-102.9,9.18-35.07,19.17-70.48,37.86-101.54s47.37-57.74,82.59-66.35c29.51-7.21,60.46-1.29,90.26,4.65,8.16,1.62,22.49,6.92,32.47,9.63a31.47,31.47,0,0,1,4.53,1.09l.21,0-.21,0a25.19,25.19,0,0,1,12.41,8.47c6,7.87,2.91,23-5.47,28.28,15.19.24,32.57,5.4,39.15,19.09,7.55,15.7,4.36,33.46,2.07,51.2,1.23-.11,2.48-.19,3.76-.19,8,0,20.33,1.74,23.86,8.86,1.6,3.2.8,7.08-.58,10.39-4.93,11.84-3.23,25.5-8.73,36.23a47.36,47.36,0,0,1-5.75,8.8,36.56,36.56,0,0,1,2.49,12.5c0,9.75-5,19-4.66,28.77.36,10.4,6.66,19.49,10.55,29.14,5.39,13.41,6.14,28.17,6.82,42.61l3.9,83.26c.71,15,1.34,30.46-3.92,44.51-7.65,20.41-28.28,35.26-50.06,36s-43.4-12.6-52.47-32.42a83.93,83.93,0,0,0,11.32-38.84c-21.48,18.81-54,19.37-80.5,8.69-26.3-10.6-47.7-30.29-68.44-49.64l-.09.37c-2.58,11.34-4.16,23.15-2,34.56s8.67,22.45,18.94,27.89,24.44,3.94,31.79-5.06c5,5.31,4,14.61-1.2,19.76s-13.35,6.44-20.43,4.66-13.23-6.21-18.54-11.23A87.34,87.34,0,0,1,101.2,396,63.09,63.09,0,0,1,61,412.62c-11.19.41-22.27-2.18-33.46-2.54-9.68-.31-20.06,1.42-27.55,7.26v82.12H500V-.54Z" transform="translate(5.02 5.54)"/><path class="cls-1" d="M97.93,228.09c14.84-16.4,33.14-29.31,48.6-45.12,34.36-35.16,53.07-82.81,84.93-120.25,8.18-9.61,17.63-18.79,29.56-22.92a36.1,36.1,0,0,1,17.56-1.47c-10-2.71-24.31-8-32.47-9.63-29.8-5.94-60.75-11.86-90.26-4.65C120.63,32.66,92,59.34,73.26,90.4S44.58,156.87,35.4,191.94C26.42,226.29,15.94,263,0,294.84v28.84c8.34-4.16,16.4-9.08,24.58-13.36C57.38,293.12,73.08,255.57,97.93,228.09Z" transform="translate(5.02 5.54)"/><path class="cls-5" d="M234.27,160.11c-19.21-3.66-40.55-2.78-44.76,19.62-3,16.21,6.15,35.92,21.15,42.78s34.41.21,44.67-12.71c6.85-8.6,11.53-20.88,7.15-31C258,168.58,245.25,162.21,234.27,160.11Z" transform="translate(5.02 5.54)"/><path class="cls-5" d="M350.72,180.19c-.61,6.63-1.31,13.41-4.14,19.44a27.73,27.73,0,0,1-4.48,6.7,30.86,30.86,0,0,1-14.07,9,28.37,28.37,0,0,1-10.44,1.19,30.24,30.24,0,0,1-26-21.18c-6.5-22.43,11.78-36.13,31.22-38.6a49.67,49.67,0,0,1,7-.41h.35c7.26.13,15.28,1.33,18.85,7.62C351.58,168.45,351.2,175,350.72,180.19Z" transform="translate(5.02 5.54)"/><path class="cls-4" d="M116,264a4.12,4.12,0,0,0-6.11,1.92,4.39,4.39,0,0,0,3.46,5.55,4.87,4.87,0,0,0,4.17-1.79c1.25-1.52.83-3.4-.44-4.79A5.18,5.18,0,0,0,116,264Z" transform="translate(5.02 5.54)"/><path class="cls-4" d="M101.72,261.5a2.76,2.76,0,0,0-.66.45c-1.59,1.41-2.21,5.19-.11,6.44a4.08,4.08,0,0,0,5.84-2.94C107,262.93,104,260.36,101.72,261.5Z" transform="translate(5.02 5.54)"/><circle class="cls-5" cx="266.7" cy="238.46" r="1.5"/><path class="cls-6" d="M291.31,307.29c8.36-4,15.8-11.78,18.16-20.74-5-4.93-17.71-9.24-25.09-3.71-4-3.23-9.94-2.8-14.87-1.21-5.56,1.79-11.13,4.59-16.69,6.38-3.51,1.13-21.28,4.82-21.28,4.82a238.56,238.56,0,0,1,37.71.28,86.83,86.83,0,0,0,11.15.8,63.75,63.75,0,0,0,10.26-1.4c6.31-1.21,12.76-2.47,18.26-5.78-5.5,3.31-11.95,4.57-18.26,5.78a63.75,63.75,0,0,1-10.26,1.4,86.83,86.83,0,0,1-11.15-.8,238.56,238.56,0,0,0-37.71-.28s22.15,12.93,26.8,14.61C269,311.28,281.13,312.15,291.31,307.29Z" transform="translate(5.02 5.54)"/><path class="cls-2" d="M252.71,362.86c.17-1.15.36-2.3.58-3.44a85.26,85.26,0,0,1-16.69-2c-16.94-3.86-32.22-12.8-47.19-21.62-17.78-10.47-39.25-20.59-50.11-38.13C131.11,284.4,128,267.54,127.9,252s2.75-32.23,5.47-47.54c-2.72,15.31-5.57,32-5.47,47.54s3.21,32.42,11.4,45.65c10.86,17.54,32.33,27.66,50.11,38.13,15,8.82,30.25,17.76,47.19,21.62a85.26,85.26,0,0,0,16.69,2,.15.15,0,0,1,0-.07.15.15,0,0,0,0,.07c13.41.31,27.47-2.51,36.74-10.3,7.59-6.37,7.67-20.15,12.6-28.74,13.3-23.16,26.26-43.55,29.52-70,1.6-12.91.1-22.33-2.27-29.86a32.65,32.65,0,0,1-5.94,1.46c-14.62,2.12-30.07-7.54-34.55-21.62-2-6.27-6.3-16.57-12.73-18-4.24-.93-6.05,3.87-7.63,7.92-1.48,3.78-2.86,8.17-4.19,12.3a40.51,40.51,0,0,1-74.11,7c-3-5.51-4.7-11.64-7.41-17.3s-6.89-15.65-12.69-13.26c-8.55,3.52-19.84,8-27,10.63-9.54,13.15-19,26.52-28.65,39.25-4.59,6.08-9.21,12.23-13.54,18.56,4,2.43,11,6.31,15,8.73-1-6.2-1.17-13.49-4.11-19.15a3.52,3.52,0,0,0-.85-1.17,1.57,1.57,0,0,0-1.43-.33,1.57,1.57,0,0,1,1.43.33,3.52,3.52,0,0,1,.85,1.17c2.94,5.66,3.1,12.95,4.11,19.15-4-2.42-11-6.3-15-8.73-2.55,3.74-5,7.53-7.27,11.41,1.51,5.15,3.78,11.23,7.48,15.12s9,6.49,14.35,6.05,12-3,13.48-9.8C128,277,121.34,279.52,116,280s-10.65-2.16-14.35-6.05-6-10-7.48-15.12c-5.48,9.32-10,19.1-12.46,29.63-5.43,22.83-1.27,48-11.68,69.05C62.66,372.34,48.76,383.15,33.64,390,22.9,394.79,11.51,397.83,0,400.33v17c7.49-5.84,17.87-7.57,27.55-7.26,11.19.36,22.27,2.95,33.46,2.54A63.09,63.09,0,0,0,101.2,396a87.34,87.34,0,0,0,26.17,50.13c5.31,5,11.45,9.45,18.54,11.23s15.24.48,20.43-4.66,6.22-14.45,1.2-19.76c-7.35,9-21.51,10.5-31.79,5.06S119,421.5,116.81,410.09s-.62-23.22,2-34.56l.09-.37m0,0c2.58-11.2,6.09-22.2,7.91-33.55,3.49-21.65,1.42-44.51-12.31-61.6,13.73,17.09,15.8,39.95,12.31,61.6C125,353,121.44,364,118.86,375.16c20.74,19.35,42.14,39,68.44,49.64,26.48,10.68,59,10.12,80.5-8.69.86-18.79-4.22-37.88-15.09-53.25a78.74,78.74,0,0,0,12.71,55,78.74,78.74,0,0,1-12.71-55m51.37-130.44a35.63,35.63,0,0,1,3.65,8.53,12,12,0,0,1-1.08,9c-1.63,2.63-5,4.32-7.94,3.43,3,.89,6.31-.8,7.94-3.43a12,12,0,0,0,1.08-9,35.63,35.63,0,0,0-3.65-8.53c-4.75-8.9-12.1-19.63-13.82-29.75C292,212.79,299.33,223.52,304.08,232.42ZM268,247.76a10.24,10.24,0,0,1,4.5-1.74c2.47-.46,5.17-.62,7.35.62s3.43,4.35,1.94,6.38h6.16a19.59,19.59,0,0,1,7.52-7.85,7.35,7.35,0,0,1,3.18-1.11,3.22,3.22,0,0,1,2.93,1.4,3.36,3.36,0,0,1-.91,4,9.78,9.78,0,0,1-4,1.9,9.78,9.78,0,0,0,4-1.9,3.36,3.36,0,0,0,.91-4,3.22,3.22,0,0,0-2.93-1.4,7.35,7.35,0,0,0-3.18,1.11,19.59,19.59,0,0,0-7.52,7.85h-6.16c1.49-2,.24-5.14-1.94-6.38s-4.88-1.08-7.35-.62a10.24,10.24,0,0,0-4.5,1.74,4.29,4.29,0,0,0-1.68,4.29A4.29,4.29,0,0,1,268,247.76Zm-6.3-16.33a1.5,1.5,0,1,1-1.5,1.5A1.5,1.5,0,0,1,261.68,231.43Zm-11.27,10.1a11.62,11.62,0,0,1,7.24-7.1,11.47,11.47,0,0,0-6,17.17,11.37,11.37,0,0,0,4.71,4.09,11.49,11.49,0,0,0,11.84-1.47,11.49,11.49,0,0,1-11.84,1.47,11.37,11.37,0,0,1-4.71-4.09A11.63,11.63,0,0,1,250.41,241.53ZM252.82,288c5.56-1.79,11.13-4.59,16.69-6.38,4.93-1.59,10.83-2,14.87,1.21,7.38-5.53,20.06-1.22,25.09,3.71-2.36,9-9.8,16.75-18.16,20.74-10.18,4.86-22.36,4-33,.15-4.65-1.68-26.8-14.61-26.8-14.61S249.31,289.14,252.82,288Zm-146-22.56a4.08,4.08,0,0,1-5.84,2.94c-2.1-1.25-1.48-5,.11-6.44a2.76,2.76,0,0,1,.66-.45C104,260.36,107,262.93,106.79,265.45Zm10.77,4.19a4.87,4.87,0,0,1-4.17,1.79,4.39,4.39,0,0,1-3.46-5.55A4.12,4.12,0,0,1,116,264a5.18,5.18,0,0,1,1.08.89C118.39,266.24,118.81,268.12,117.56,269.64Z" transform="translate(5.02 5.54)"/><path class="cls-6" d="M252.71,362.86m0,0c10.87,15.37,16,34.46,15.09,53.25l-.09.06c-.78.67-1.51,1-2.29,1.7a78.74,78.74,0,0,1-12.71-55m5.63-55.42" transform="translate(5.02 5.54)"/><circle class="cls-7" cx="266.7" cy="238.46" r="1.5"/><path class="cls-7" d="M116,264a4.12,4.12,0,0,0-6.11,1.92,4.39,4.39,0,0,0,3.46,5.55,4.87,4.87,0,0,0,4.17-1.79c1.25-1.52.83-3.4-.44-4.79A5.18,5.18,0,0,0,116,264Z" transform="translate(5.02 5.54)"/><path class="cls-7" d="M101.72,261.5a2.76,2.76,0,0,0-.66.45c-1.59,1.41-2.21,5.19-.11,6.44a4.08,4.08,0,0,0,5.84-2.94C107,262.93,104,260.36,101.72,261.5Z" transform="translate(5.02 5.54)"/><path class="cls-7" d="M284.38,282.84c-4-3.23-9.94-2.8-14.87-1.21-5.56,1.79-11.13,4.59-16.69,6.38-3.51,1.13-21.28,4.82-21.28,4.82s22.15,12.93,26.8,14.61c10.61,3.84,22.79,4.71,33-.15,8.36-4,15.8-11.78,18.16-20.74C304.44,281.62,291.76,277.31,284.38,282.84Z" transform="translate(5.02 5.54)"/><path class="cls-6" d="M116.37,256.12c-1-6.2-1.17-13.49-4.11-19.15a3.52,3.52,0,0,0-.85-1.17,1.55,1.55,0,0,0-1.42-.33c-2.92,3.92-5.8,7.88-8.57,11.92C105.39,249.82,112.4,253.7,116.37,256.12Z" transform="translate(5.02 5.54)"/><path class="cls-1" d="M114.46,280c13.73,17.09,15.8,39.95,12.31,61.6C125,353,121.44,364,118.86,375.16l-.09.37c-2.58,11.34-4.16,23.15-2,34.56s8.67,22.45,18.94,27.89,24.44,3.94,31.79-5.06c5,5.31,4,14.61-1.2,19.76s-13.35,6.44-20.43,4.66-13.23-6.21-18.54-11.23A87.34,87.34,0,0,1,101.2,396,63.09,63.09,0,0,1,61,412.62c-11.19.41-22.27-2.18-33.46-2.54-9.68-.31-20.06,1.42-27.55,7.26v-17c11.53-2.5,22.92-5.54,33.66-10.37,15.12-6.81,29-17.62,36.37-32.48,10.41-21,6.25-46.22,11.68-69.05,2.5-10.53,7-20.31,12.46-29.63,1.51,5.15,3.78,11.23,7.48,15.12A18.85,18.85,0,0,0,114.4,280Z" transform="translate(5.02 5.54)"/><circle class="cls-8" cx="255.02" cy="255.02" r="250.02"/></svg>